<?xml version="1.0" standalone="no"?><!DOCTYPE svg PUBLIC "-//W3C//DTD SVG 1.1//EN" "http://www.w3.org/Graphics/SVG/1.1/DTD/svg11.dtd"><svg t="1553564846234" class="icon" style="" viewBox="0 0 1024 1024" version="1.1" xmlns="http://www.w3.org/2000/svg" p-id="1098" xmlns:xlink="http://www.w3.org/1999/xlink" width="128" height="128"><defs><style type="text/css"></style></defs><path d="M656.403 578.265c89.323-50.654 149.411-145.202 149.411-253.487 0-161.698-133.964-292.778-299.222-292.778-165.253 0-299.216 131.080-299.216 292.778 0 110.045 62.060 205.892 153.789 255.91-150.944 58.708-257.655 202.928-257.655 371.539 0 21.959 18.193 39.759 40.633 39.759s40.627-17.8 40.627-39.759h0.006c0.218-176.778 146.747-320.024 327.475-320.024 178.703 0 323.949 140.069 327.38 314.122-0.283 1.777-0.444 3.828-0.444 5.915 0 21.946 18.187 39.746 40.629 39.746 22.44 0 40.635-17.8 40.635-39.759-0.004-170.977-109.734-316.88-264.046-373.962M506.593 539.103c-120.968 0-219.036-95.956-219.036-214.325s98.068-214.325 219.036-214.325c120.973 0 219.040 95.956 219.040 214.325 0.001 118.362-98.066 214.325-219.040 214.325z" p-id="1099" fill="#8a8a8a"></path></svg>