<?xml version="1.0" standalone="no"?><!DOCTYPE svg PUBLIC "-//W3C//DTD SVG 1.1//EN" "http://www.w3.org/Graphics/SVG/1.1/DTD/svg11.dtd"><svg t="1554800765232" class="icon" style="" viewBox="0 0 1024 1024" version="1.1" xmlns="http://www.w3.org/2000/svg" p-id="2601" xmlns:xlink="http://www.w3.org/1999/xlink" width="128" height="128"><defs><style type="text/css"></style></defs><path d="M466.73858 512 9.38029 54.641709C-3.116097 42.145323-3.116097 21.884676 9.38029 9.38829 21.876677-3.108097 42.137323-3.108097 54.63371 9.38829L511.992 466.74658 969.35029 9.38829C981.84668-3.108097 1002.107321-3.108097 1014.603711 9.38829 1027.100095 21.884676 1027.100095 42.145323 1014.603711 54.641709L557.24542 512 1014.603711 969.35829C1027.100095 981.85468 1027.100095 1002.115321 1014.603711 1014.611711 1002.107321 1027.108095 981.84668 1027.108095 969.35029 1014.611711L511.992 557.25342 54.63371 1014.611711C42.137323 1027.108095 21.876677 1027.108095 9.38029 1014.611711-3.116097 1002.115321-3.116097 981.85468 9.38029 969.35829L466.73858 512Z" p-id="2602"></path></svg>