<?xml version="1.0" standalone="no"?><!DOCTYPE svg PUBLIC "-//W3C//DTD SVG 1.1//EN" "http://www.w3.org/Graphics/SVG/1.1/DTD/svg11.dtd"><svg t="1553680000982" class="icon" style="" viewBox="0 0 1024 1024" version="1.1" xmlns="http://www.w3.org/2000/svg" p-id="3172" xmlns:xlink="http://www.w3.org/1999/xlink" width="128" height="128"><defs><style type="text/css"></style></defs><path d="M101.312 329.6h821.312c20.544 0 37.248 0 37.248-32.128 0-17.856-28.864-34.368-31.488-36.032l-152.128-98.624c-17.28-11.2-39.104-8.192-48.832 6.656-9.6 14.912-3.456 36.096 13.824 47.296l74.944 48.576H101.312c-20.608 0-37.312 14.4-37.312 32.128 0 17.792 16.704 32.128 37.312 32.128zM922.56 694.4H101.248c-20.544 0-37.248 0-37.248 32.128 0 17.856 28.864 34.368 31.488 36.032l152.128 98.624c17.28 11.2 39.104 8.192 48.832-6.656 9.6-14.912 3.456-36.096-13.824-47.232l-74.944-48.64h714.88c20.544 0 37.312-14.4 37.312-32.128s-16.768-32.128-37.312-32.128z" p-id="3173"></path></svg>