<?xml version="1.0" standalone="no"?><!DOCTYPE svg PUBLIC "-//W3C//DTD SVG 1.1//EN" "http://www.w3.org/Graphics/SVG/1.1/DTD/svg11.dtd"><svg t="1553667822313" class="icon" style="" viewBox="0 0 1024 1024" version="1.1" xmlns="http://www.w3.org/2000/svg" p-id="1243" xmlns:xlink="http://www.w3.org/1999/xlink" width="128" height="128"><defs><style type="text/css"></style></defs><path d="M511.8 64.2c-247.2 0-447.6 200.4-447.6 447.6s200.4 447.6 447.6 447.6S959.3 759 959.3 511.8 759 64.2 511.8 64.2zM713.5 361c-39.7 88.6-162.1 393.5-162.1 393.5s-47.1-145.5-61-188.7c-5.1-15.9 0.7-10.5-17.6-16.1-45-13.7-184.9-56.2-184.9-56.2s119.8-43.2 233.8-84.3c67-24.2 131.7-48.6 169.5-61.2 20.6-6.9 30.8-6.1 22.3 13z" p-id="1244" fill="#ffffff"></path></svg>