<svg width="275" height="85" xmlns="http://www.w3.org/2000/svg" xmlns:xlink="http://www.w3.org/1999/xlink" viewBox="0 0 275.9 85.57"><defs><style>.cls-1{isolation:isolate;}.cls-2{fill:url(#linear-gradient);}.cls-3{mix-blend-mode:screen;fill:url(#radial-gradient);}.cls-4{fill:#666;}.cls-5{fill:#fff;}.cls-6{fill:none;stroke:#fff;stroke-miterlimit:10;}.cls-7{mix-blend-mode:multiply;fill:url(#radial-gradient-2);}</style><linearGradient id="linear-gradient" x1="5.33" y1="9.61" x2="113.25" y2="-43.68" gradientTransform="translate(32.43 63.8) rotate(-10.04)" gradientUnits="userSpaceOnUse"><stop offset="0" stop-color="#000377"/><stop offset="0.26" stop-color="#0a2fa3"/><stop offset="0.65" stop-color="#1b93d4"/><stop offset="1" stop-color="#2cd0f4"/></linearGradient><radialGradient id="radial-gradient" cx="28.2" cy="-25.14" r="285.38" gradientTransform="translate(32.43 63.8) rotate(-10.04)" gradientUnits="userSpaceOnUse"><stop offset="0"/><stop offset="0.2" stop-color="#2f2f2f"/><stop offset="0.53" stop-color="#a2a2a2"/><stop offset="0.77" stop-color="#dadada"/><stop offset="1" stop-color="#fff"/></radialGradient><radialGradient id="radial-gradient-2" cx="69.18" cy="20377.84" r="57.58" gradientTransform="translate(-11.62 -1573.79) scale(1 0.08)" gradientUnits="userSpaceOnUse"><stop offset="0.11" stop-color="#b2b2b2"/><stop offset="1" stop-color="#fff"/></radialGradient></defs><title>数字方舟-阴影</title><g class="cls-1"><g id="图层_1" data-name="图层 1"><path class="cls-2" d="M65.12,75.06l-.8.83c15.14-5.63,42.72-18.67,65.33-31l3.67,7.06a3.66,3.66,0,0,1,.18,2.93,3.61,3.61,0,0,1-2.06,2.08L64.1,83.16a11.45,11.45,0,0,1-14.24-5.25L48,74.46,27,35.18a5.8,5.8,0,0,1,4.35-8.5L103.76,17l1.19-.16A13.6,13.6,0,0,1,118.81,24l4.11,7.89c8.74-7.58,14.66-13.91,13.82-16.6-.25-3-3.71-3.55-18-.85C123.05,12,146.39,5.6,151,8.37c4.91,3-6.94,13.8-23.38,26l-2.46,1.81c-11.25,8.2-24.27,16.83-35.46,24S69.07,72.87,65.17,75Z" transform="translate(-11.62 -7.69)"/><path class="cls-3" d="M103.76,17C99.16,30.77,76.68,61.5,48,74.46L27,35.18a5.8,5.8,0,0,1,4.35-8.5Z" transform="translate(-11.62 -7.69)"/><path class="cls-4" d="M161.29,69.28v-.76a4.58,4.58,0,0,0,2.32.66,3.2,3.2,0,0,0,1.9-.47,1.53,1.53,0,0,0,.64-1.32,1.63,1.63,0,0,0-.43-1.19A8.52,8.52,0,0,0,163.83,65a6.61,6.61,0,0,1-2.05-1.44,2.22,2.22,0,0,1,.45-3.08,3.59,3.59,0,0,1,2.34-.72,6.43,6.43,0,0,1,1.91.29v.7a5.26,5.26,0,0,0-2-.38,2.72,2.72,0,0,0-1.72.5,1.55,1.55,0,0,0-.64,1.27,1.61,1.61,0,0,0,.43,1.18,8.52,8.52,0,0,0,1.88,1.2,6.7,6.7,0,0,1,2,1.37,2.09,2.09,0,0,1,.5,1.38,2.25,2.25,0,0,1-.85,1.82,3.68,3.68,0,0,1-2.41.7,6.08,6.08,0,0,1-1.27-.16A4.48,4.48,0,0,1,161.29,69.28Z" transform="translate(-11.62 -7.69)"/><path class="cls-4" d="M176.75,69.63V65h-6.11v4.65h-.74v-9.7h.74v4.44h6.11V59.92h.73v9.7Z" transform="translate(-11.62 -7.69)"/><path class="cls-4" d="M188.2,65.75q0,4-3.8,4-3.61,0-3.61-3.9v-6h.73V65.8q0,3.38,3,3.38t2.92-3.28v-6h.73Z" transform="translate(-11.62 -7.69)"/><path class="cls-4" d="M191.74,69h6.39v.61h-7.5v-.21l6.46-8.88h-5.95v-.62h7.08v.18Z" transform="translate(-11.62 -7.69)"/><path class="cls-4" d="M200.9,69.63v-9.7h.74v9.7Z" transform="translate(-11.62 -7.69)"/><path class="cls-4" d="M205.82,60.54v4h3.94v.61h-3.94v4.52h-.74v-9.7h5v.62Z" transform="translate(-11.62 -7.69)"/><path class="cls-4" d="M218.31,69.63l-1.22-3h-4.62l-1.23,3h-.81l4-9.7h.7l4,9.7ZM215,61.51a2.72,2.72,0,0,1-.13-.4l-.11-.34h0a6,6,0,0,1-.24.73l-1.8,4.5h4.12Z" transform="translate(-11.62 -7.69)"/><path class="cls-4" d="M229.2,69.63l-6.35-7.84a4.14,4.14,0,0,1-.34-.47l-.1-.14h0a3.7,3.7,0,0,1,0,.43v8h-.74v-9.7h.56l6.31,7.77q.21.26.45.63h0q0-.48,0-.81V59.92h.73v9.7Z" transform="translate(-11.62 -7.69)"/><path class="cls-4" d="M240.88,68.95a7.39,7.39,0,0,1-3.4.85,4.62,4.62,0,0,1-4.87-4.88,5,5,0,0,1,1.45-3.68,5.19,5.19,0,0,1,3.88-1.48,7.48,7.48,0,0,1,2.73.51V61a7,7,0,0,0-2.83-.63A4.6,4.6,0,0,0,234.51,68a4.17,4.17,0,0,0,3.1,1.16,5.38,5.38,0,0,0,2.53-.57v-3.2h-2.52V64.8h3.25Z" transform="translate(-11.62 -7.69)"/><path class="cls-4" d="M244.27,69h6.39v.61h-7.5v-.21l6.46-8.88h-5.95v-.62h7.08v.18Z" transform="translate(-11.62 -7.69)"/><path class="cls-4" d="M260.28,69.63V65h-6.11v4.65h-.74v-9.7h.74v4.44h6.11V59.92H261v9.7Z" transform="translate(-11.62 -7.69)"/><path class="cls-4" d="M268.85,69.8a4.66,4.66,0,0,1-4.95-4.92A4.78,4.78,0,0,1,269,59.76a4.71,4.71,0,0,1,3.49,1.34,4.78,4.78,0,0,1,1.34,3.52,5.15,5.15,0,0,1-1.37,3.79A4.92,4.92,0,0,1,268.85,69.8Zm.08-9.42a4.11,4.11,0,0,0-3.06,1.22,4.38,4.38,0,0,0-1.2,3.2A4.42,4.42,0,0,0,265.79,68a4,4,0,0,0,3,1.19A4.19,4.19,0,0,0,272,68a4.47,4.47,0,0,0,1.15-3.27A4.39,4.39,0,0,0,272,61.53,4.1,4.1,0,0,0,268.92,60.37Z" transform="translate(-11.62 -7.69)"/><path class="cls-4" d="M284,65.75q0,4-3.8,4-3.61,0-3.61-3.9v-6h.73V65.8q0,3.38,3,3.38t2.92-3.28v-6H284Z" transform="translate(-11.62 -7.69)"/><path class="cls-4" d="M163.53,36.12l2,.26-.29.78v3.9h4.86v1.3h-4.86v3.38h-1.72v-3q-.72.85-1.22,1.34a15.65,15.65,0,0,1-3.07,2.43l-.17-.22a3.54,3.54,0,0,0-1.26-.82,15.59,15.59,0,0,0,1.6-.78,8.28,8.28,0,0,0,2.69-2.34h-3.58v-1.3h5Zm3.67,16,2.88.91-1.43,1.3-2.46-1a15.5,15.5,0,0,1-1.79,1.17A14.05,14.05,0,0,1,159.47,56q-.24-.41-.41-.65a4.64,4.64,0,0,0-1.17-1.17H158l.41,0a14.67,14.67,0,0,0,3.49-.37,10.07,10.07,0,0,0,2.71-1.08l-4.29-1,1.57-2.6h-3.29v-1.3h4l.19-.28a5.41,5.41,0,0,0,.67-1.54l2,.52-.33.39a8.25,8.25,0,0,0-.67.91h4.15v1.3q-.21.61-.38,1A13.81,13.81,0,0,1,167.2,52.11Zm-7.68-14.56,1.72-.26L162.38,40l-1.72.26q-.17-.56-.29-.91A10.3,10.3,0,0,0,159.52,37.55Zm7.25,11.57h-3l-1.29,1.82,1,.17q1.14.22,2.12.48a6.46,6.46,0,0,0,.45-.65A5.24,5.24,0,0,0,166.77,49.12Zm-1-5.33,1.29-.91q.38.43.64.69A13,13,0,0,0,169.39,45l-1.29,1-.71-.72Q166.53,44.44,165.81,43.79ZM168,40.54l-1.57-.39a7.31,7.31,0,0,0,.55-.78,7.43,7.43,0,0,0,.88-2.08l1.72.52q-.36.5-.57.82A10.89,10.89,0,0,0,168,40.54Zm-.29,14.3a20.1,20.1,0,0,0,2-.65,10.92,10.92,0,0,0,3.77-2.45,19.2,19.2,0,0,1-1.1-1.71,16.9,16.9,0,0,1-1.72-4.16l1.64-.5q.24,1.06.45,1.73a13.4,13.4,0,0,0,1.72,3.51s.17-.4.45-1.21a25.08,25.08,0,0,0,.88-3.08,19.43,19.43,0,0,0,.48-4.07h-3.15q-.14.33-.26.54a10.66,10.66,0,0,1-1.72,2.34,3.48,3.48,0,0,0-.55-.3,3.59,3.59,0,0,0-1.45-.33,6.87,6.87,0,0,0,.88-1.08,22.36,22.36,0,0,0,1.81-2.88,15.2,15.2,0,0,0,1.45-4l2.5.52a22.73,22.73,0,0,0-1.22,2.41,10.12,10.12,0,0,1-.79,1.45h6.63v1.37h-2.15q-.07.78-.12,1.56a24,24,0,0,1-.74,3.68,16.16,16.16,0,0,1-1.79,4.25q.83.59,1.38.91a17.59,17.59,0,0,0,3.24,1.56l-.38.22a4.37,4.37,0,0,0-1.26,1.17q-.81-.48-1.31-.8a32.28,32.28,0,0,1-2.67-2q-.83.74-1.41,1.17a25.48,25.48,0,0,1-3.41,2.21,2.31,2.31,0,0,0-.67-.76A4.16,4.16,0,0,0,167.67,54.84Z" transform="translate(-11.62 -7.69)"/><path class="cls-4" d="M207.43,44.18h-9.3V42.49H211v1.69q-1,.48-1.67.8a31.89,31.89,0,0,0-3.19,1.8v1h9.15v1.69h-9.15v5.07a2.23,2.23,0,0,1-1.24.89q-.21.07-3.05.54a4,4,0,0,0-.17-.72,2.53,2.53,0,0,0-.83-1.24l.43,0,.64,0,.67,0a2.85,2.85,0,0,0,.87-.12,1.63,1.63,0,0,0,.68-.44v-4H194V47.82h10.15V46.13l.64-.26A10.12,10.12,0,0,0,207.43,44.18ZM206,38.82h8.49v4.33h-2V40.58H196.83v2.3H194.7V38.82h9.2q-.12-.46-.21-.74a8.16,8.16,0,0,0-.79-1.56l2-.41q.26.52.41.85A15.1,15.1,0,0,1,206,38.82Z" transform="translate(-11.62 -7.69)"/><path class="cls-4" d="M239.47,41.71,239.18,45h8.87l-1,8.71a2.64,2.64,0,0,1-1.76,2.23,9.2,9.2,0,0,1-3.38.5,5.2,5.2,0,0,0,0-.54,2.08,2.08,0,0,0-1-1.67l.49,0h.92a5.28,5.28,0,0,0,1.62-.17A1.93,1.93,0,0,0,245,52.89l.71-6.37H238.9l-.57,2a17.46,17.46,0,0,1-2.22,4.23,12.35,12.35,0,0,1-4.51,4l-.29-.35a4.07,4.07,0,0,0-1.86-1.08,6.92,6.92,0,0,0,1.76-1,14.19,14.19,0,0,0,3.46-3A10.62,10.62,0,0,0,237,45.87l.29-4.16H229.6V40h21.88v1.69Zm-.72-4.94,2-.52,1.43,2.86-2.15.52q-.17-.61-.31-1A7.64,7.64,0,0,0,238.75,36.77Z" transform="translate(-11.62 -7.69)"/><path class="cls-4" d="M273.65,38.59l.24-.8q.33-1.11.48-1.8l.81.15a14.78,14.78,0,0,1,1.48.37l-1.14,2.08h7.29v7.15h4.72V47.3H282.8V55a3.18,3.18,0,0,1-2.41,1.08l-1.88.22a5.29,5.29,0,0,0-.17-.85,2.08,2.08,0,0,0-.83-1.24h2.43a1.33,1.33,0,0,0,.43-.09.7.7,0,0,0,.43-.69V47.3h-9q-.12.85-.21,1.69a15.46,15.46,0,0,1-1.12,3.68,9.28,9.28,0,0,1-2.81,3.6,4.28,4.28,0,0,0-.6-.5,5.44,5.44,0,0,0-1.69-.8,3.5,3.5,0,0,0,1.14-.72,8,8,0,0,0,2.12-2.41,8.91,8.91,0,0,0,1.17-4.55h-4.58V45.74h4.58V38.59Zm-1.86,7.15h9V40.15h-9Zm3-4,2-.26.86,3-2,.39q-.07-.63-.14-1A8.59,8.59,0,0,0,274.79,41.71Zm0,7,2-.26.19,1.15q.24,1.26.52,2.23l-2.15.39q0-.76-.07-1.21A8.58,8.58,0,0,0,274.79,48.73Z" transform="translate(-11.62 -7.69)"/><circle class="cls-5" cx="49.67" cy="20.88" r="2.35"/><circle class="cls-5" cx="49.67" cy="27.8" r="2.35"/><circle class="cls-5" cx="61.29" cy="42.42" r="2.35" transform="translate(-23.66 48.07) rotate(-45)"/><circle class="cls-5" cx="61.29" cy="49.6" r="2.35" transform="translate(-28.74 50.17) rotate(-45)"/><circle class="cls-5" cx="57.18" cy="27.67" r="2.35"/><circle class="cls-5" cx="68.8" cy="42.29" r="2.35" transform="translate(-21.37 53.35) rotate(-45)"/><circle class="cls-5" cx="76.48" cy="41.78" r="2.35" transform="translate(-18.77 58.63) rotate(-45)"/><circle class="cls-5" cx="68.8" cy="49.47" r="2.35" transform="translate(-26.45 55.45) rotate(-45)"/><circle class="cls-5" cx="42.49" cy="27.67" r="2.35"/><circle class="cls-5" cx="54.11" cy="42.29" r="2.35" transform="translate(-25.67 42.96) rotate(-45)"/><circle class="cls-5" cx="46.92" cy="42.29" r="2.35" transform="translate(-27.78 37.88) rotate(-45)"/><circle class="cls-5" cx="54.11" cy="49.47" r="2.35" transform="translate(-30.75 45.06) rotate(-45)"/><circle class="cls-5" cx="61.29" cy="56.51" r="2.35" transform="translate(-33.63 52.2) rotate(-45)"/><line class="cls-6" x1="49.67" y1="20.88" x2="63.2" y2="32.43"/><line class="cls-6" x1="64.86" y1="34.1" x2="49.9" y2="49.05"/><ellipse class="cls-7" cx="57.56" cy="80.9" rx="57.56" ry="4.68"/></g></g></svg>