<?xml version="1.0" standalone="no"?><!DOCTYPE svg PUBLIC "-//W3C//DTD SVG 1.1//EN" "http://www.w3.org/Graphics/SVG/1.1/DTD/svg11.dtd"><svg t="1553679839503" class="icon" style="" viewBox="0 0 1024 1024" version="1.1" xmlns="http://www.w3.org/2000/svg" p-id="1775" xmlns:xlink="http://www.w3.org/1999/xlink" width="128" height="128"><defs><style type="text/css"></style></defs><path d="M512 927c-209.6 0-380.13-170.52-380.13-380.13 0-104.92 44-206.18 120.71-277.83 8.37-7.82 21.5-7.37 29.33 1 7.82 8.38 7.37 21.51-1 29.33-68.34 63.83-107.54 154.04-107.54 247.5 0 186.72 151.91 338.63 338.63 338.63s338.63-151.91 338.63-338.63c0-93.46-39.19-183.67-107.54-247.5-8.37-7.82-8.82-20.95-1-29.33 7.82-8.37 20.96-8.82 29.33-1 76.71 71.65 120.71 172.91 120.71 277.83C892.13 756.48 721.6 927 512 927z" p-id="1776"></path><path d="M512 532.75c-11.46 0-20.75-9.29-20.75-20.75V117.75c0-11.46 9.29-20.75 20.75-20.75s20.75 9.29 20.75 20.75V512c0 11.46-9.29 20.75-20.75 20.75z" p-id="1777"></path></svg>