<?xml version="1.0" standalone="no"?><!DOCTYPE svg PUBLIC "-//W3C//DTD SVG 1.1//EN" "http://www.w3.org/Graphics/SVG/1.1/DTD/svg11.dtd"><svg t="1555469173357" class="icon" style="" viewBox="0 0 1024 1024" version="1.1" xmlns="http://www.w3.org/2000/svg" p-id="1757" xmlns:xlink="http://www.w3.org/1999/xlink" width="128" height="128"><defs><style type="text/css"></style></defs><path d="M420.9664 32.8704c-24.576 22.016-36.9664 48.9472-36.9664 80.896 0 32.0512 12.3392 58.9312 36.9664 80.896 24.7296 21.9136 55.04 32.8704 91.0336 32.8704a132.096 132.096 0 0 0 90.9824-32.8704c24.3712-21.248 37.7344-50.5344 36.9664-80.896 0-32-12.288-58.88-36.9664-80.896C578.304 10.9568 547.9424 0 512 0 475.9552 0 445.696 10.9568 420.9664 32.8704z m0 398.2336C396.3904 453.0688 384 480 384 512c0 32 12.3392 58.88 36.9664 80.896 24.7296 21.8624 55.04 32.8704 91.0336 32.8704a132.096 132.096 0 0 0 90.9824-32.8704c24.3712-21.2992 37.7344-50.5856 36.9664-80.896 0-32.0512-12.288-58.9312-36.9664-80.896-24.6784-21.9136-55.04-32.8704-90.9824-32.8704-36.0448 0-66.304 10.9568-91.0336 32.8704z m0 398.1824c-24.576 22.016-36.9664 48.9472-36.9664 80.896 0 32.0512 12.3392 58.9312 36.9664 80.896 24.7296 21.9136 55.04 32.8704 91.0336 32.8704a132.096 132.096 0 0 0 90.9824-32.8704c24.3712-21.248 37.7344-50.5344 36.9664-80.896 0-32-12.288-58.88-36.9664-80.896-24.6784-21.8624-55.04-32.8704-90.9824-32.8704-36.0448 0-66.304 11.008-91.0336 32.8704z" p-id="1758" ></path></svg>