<?xml version="1.0" standalone="no"?><!DOCTYPE svg PUBLIC "-//W3C//DTD SVG 1.1//EN" "http://www.w3.org/Graphics/SVG/1.1/DTD/svg11.dtd"><svg t="1555481249683" class="icon" style="" viewBox="0 0 1349 1024" version="1.1" xmlns="http://www.w3.org/2000/svg" p-id="2071" xmlns:xlink="http://www.w3.org/1999/xlink" width="168.625" height="128"><defs><style type="text/css"></style></defs><path d="M271.546182 198.4l84.340363-135.377455h0.16291A135.889455 135.889455 0 0 1 470.621091 0.023273a135.866182 135.866182 0 0 1 114.781091 63.185454h179.013818A135.842909 135.842909 0 0 1 879.197091 0.023273 135.819636 135.819636 0 0 1 993.745455 63.022545h0.186181l84.224 135.191273a259.397818 259.397818 0 0 0-84.736-14.173091c-89.483636 0-171.985455 46.056727-218.996363 121.204364h-199.051637a258.117818 258.117818 0 0 0-303.825454-106.845091z m1078.202182 522.449455c0 167.424-135.842909 303.104-303.290182 303.104-106.891636 0-200.448-55.458909-254.370909-138.961455a146.571636 146.571636 0 0 1-234.379637 0c-53.899636 83.502545-147.479273 138.961455-254.370909 138.961455-167.447273 0-303.290182-135.68-303.290182-303.104 0-60.253091 17.803636-116.177455 48.221091-163.281455l-0.349091-0.186182 162.164364-260.282182a205.637818 205.637818 0 0 1 146.292364-61.277091 206.196364 206.196364 0 0 1 181.317818 107.68291l7.377454 13.521454h259.630546l7.377454-13.521454a206.266182 206.266182 0 0 1 181.341091-107.68291 205.498182 205.498182 0 0 1 145.524364 59.997091L1301.876364 557.381818l-0.349091 0.186182a299.799273 299.799273 0 0 1 48.221091 163.281455z m-857.506909 0c0-104.098909-84.503273-188.485818-188.904728-188.485819-104.378182 0-188.881455 84.386909-188.881454 188.485819 0 104.238545 84.503273 188.648727 188.881454 188.648727 104.401455 0 188.904727-84.410182 188.904728-188.648727z m251.787636 75.938909a69.12 69.12 0 0 0-69.143273-69.050182 69.12 69.12 0 0 0-69.12 69.050182 69.073455 69.073455 0 0 0 69.12 69.050181 69.096727 69.096727 0 0 0 69.143273-69.050181z m491.310545-75.938909c0-104.098909-84.503273-188.485818-188.881454-188.485819-104.378182 0-188.904727 84.386909-188.904727 188.485819 0 104.238545 84.526545 188.648727 188.904727 188.648727 104.378182 0 188.881455-84.410182 188.881454-188.648727z" p-id="2072"></path></svg>