<?xml version="1.0" standalone="no"?><!DOCTYPE svg PUBLIC "-//W3C//DTD SVG 1.1//EN" "http://www.w3.org/Graphics/SVG/1.1/DTD/svg11.dtd"><svg t="1553565554320" class="icon" style="" viewBox="0 0 1024 1024" version="1.1" xmlns="http://www.w3.org/2000/svg" p-id="1493" xmlns:xlink="http://www.w3.org/1999/xlink" width="200" height="200"><defs><style type="text/css"></style></defs><path d="M1012.8 968L814.4 768c73.6-84.8 113.6-192 113.6-304 0-123.2-48-240-136-328-180.8-180.8-475.2-180.8-656 0s-180.8 475.2 0 656C224 881.6 342.4 928 464 928c60.8 0 121.6-11.2 180.8-36.8 16-6.4 24-25.6 17.6-41.6-6.4-16-25.6-24-41.6-17.6-150.4 64-323.2 28.8-438.4-86.4-155.2-155.2-155.2-409.6 0-566.4 155.2-155.2 409.6-155.2 566.4 0C822.4 256 864 356.8 864 464s-41.6 208-116.8 283.2c-12.8 12.8-12.8 32 0 44.8 1.6 1.6 1.6 1.6 3.2 1.6 0 1.6 1.6 1.6 1.6 3.2l216 216c6.4 6.4 14.4 9.6 22.4 9.6s16-3.2 22.4-9.6c12.8-11.2 12.8-32 0-44.8z" fill="#211B13" p-id="1494"></path><path d="M635.2 640c-44.8 44.8-105.6 70.4-169.6 70.4s-124.8-25.6-169.6-70.4c-12.8-12.8-32-12.8-44.8 0s-12.8 32 0 44.8c57.6 57.6 134.4 89.6 214.4 89.6s156.8-32 214.4-89.6c12.8-12.8 12.8-32 0-44.8-11.2-12.8-32-12.8-44.8 0zM251.2 254.4c-12.8 12.8-12.8 32 0 44.8s32 12.8 44.8 0c92.8-92.8 246.4-92.8 339.2 0 6.4 6.4 14.4 9.6 22.4 9.6s16-3.2 22.4-9.6c12.8-12.8 12.8-32 0-44.8-116.8-118.4-310.4-118.4-428.8 0z" fill="#FFB243" p-id="1495"></path></svg>